{"asset":{"version":"2.0","generator":"VECTARY"},"nodes":[{"translation":[0,0,0],"scale":[0.0017243996733688211,0.001,0.0021213416915095186],"rotation":[-0.7071067811865475,0,0,0.7071067811865476],"name":"Box","mesh":0},{"translation":[0.16308191430770003,0.15438533874213264,0.6545073596610637],"scale":[1,1,1],"rotation":[-0.0560831471989639,0.10840995875175208,0.0061258905946494635,0.9925041233708427],"name":"Camera","camera":0}],"materials":[{"pbrMetallicRoughness":{"baseColorFactor":[1,1,1,1],"baseColorTexture":{"index":0,"extensions":{"KHR_texture_transform":{"offset":[0,0],"scale":[1,1],"rotation":0}},"texCoord":0},"metallicFactor":0,"roughnessFactor":0.2},"name":"Material","normalTexture":{"index":1,"scale":1,"extensions":{"KHR_texture_transform":{"offset":[0,0],"scale":[1,1],"rotation":0}},"texCoord":0},"emissiveFactor":[0,0,0],"alphaMode":"OPAQUE","doubleSided":false}],"textures":[{"sampler":0,"source":0},{"sampler":0,"source":1}],"images":[{"uri":"map_7.jpg","mimeType":"image/jpeg"},{"uri":"map_6.jpg","mimeType":"image/jpeg"}],"samplers":[{"wrapS":10497,"wrapT":10497}],"meshes":[{"primitives":[{"mode":4,"attributes":{"POSITION":1,"NORMAL":2,"TEXCOORD_0":3},"material":0,"indices":0}]}],"accessors":[{"bufferView":0,"byteOffset":0,"componentType":5125,"count":144,"type":"SCALAR"},{"bufferView":1,"byteOffset":0,"componentType":5126,"count":54,"max":[50,50,100],"min":[-50,-50,0],"type":"VEC3"},{"bufferView":2,"byteOffset":0,"componentType":5126,"count":54,"type":"VEC3"},{"bufferView":3,"byteOffset":0,"componentType":5126,"count":54,"type":"VEC2"}],"bufferViews":[{"buffer":0,"byteOffset":0,"byteLength":576,"target":34963},{"buffer":0,"byteOffset":576,"byteLength":648,"target":34962},{"buffer":0,"byteOffset":1224,"byteLength":648,"target":34962},{"buffer":0,"byteOffset":1872,"byteLength":432,"target":34962}],"cameras":[{"name":"Camera","type":"perspective","extras":{"targetDistance":0.714},"perspective":{"aspectRatio":1.7506775067750677,"yfov":0.6108652381980153,"zfar":47.0967096709671,"znear":0.003780978097809781}}],"scene":0,"scenes":[{"nodes":[0,1],"name":"2ndfloormap"}],"extensionsUsed":["KHR_texture_transform"],"buffers":[{"byteLength":2304,"uri":"2ndfloormap.bin"}]}